<?xml version="1.0" encoding="utf-8"?>
<!-- Generator: Adobe Illustrator 16.0.4, SVG Export Plug-In . SVG Version: 6.00 Build 0)  -->
<!DOCTYPE svg PUBLIC "-//W3C//DTD SVG 1.1//EN" "http://www.w3.org/Graphics/SVG/1.1/DTD/svg11.dtd">
<svg version="1.1" id="Layer_1" xmlns="http://www.w3.org/2000/svg" xmlns:xlink="http://www.w3.org/1999/xlink" x="0px" y="0px"
	 width="245px" height="278px" viewBox="0 0 245 278" enable-background="new 0 0 245 278" xml:space="preserve">
<g>
	<path fill="#D5D6E7" d="M122.519,8.573C59.698,8.573,8.59,59.57,8.59,122.253c0,62.684,51.108,113.68,113.929,113.68
		c8.001,0,15.811-0.832,23.351-2.406c-0.105-1.297-0.173-2.604-0.173-3.926c0-26.685,21.75-48.395,48.486-48.395
		c7.991,0,15.529,1.951,22.181,5.381c12.636-18.307,20.047-40.471,20.047-64.334C236.41,59.57,185.319,8.573,122.519,8.573z"/>
</g>
<path fill="#00A7A5" d="M127.133,235.832V41.541c0.075,0,0.151-0.025,0.226-0.025c-26.692,0-48.339,21.91-48.339,54.062
	c0,0.057,0.008,0.092,0.008,0.149c0.009,3.286,0.428,6.499,1.091,9.619c3.687,19.748,17.8,35.893,31.663,43.459
	c0.822,0.457,0.948,1.514,0.209,1.644c-44.252,7.436-60.294,20.191-60.377,60.719c19.472,15.492,44.122,24.767,70.905,24.767
	C124.065,235.934,125.602,235.893,127.133,235.832z"/>
<g>
	<g opacity="0.25">
		<path fill="#2F3185" d="M166.691,63.158c5.67,8.76,9.019,19.795,9.019,32.42c0,0.057-0.008,0.092-0.008,0.149
			c-0.008,3.286-0.436,6.499-1.082,9.619c-3.725,19.84-17.935,36.021-31.852,43.562c-0.763,0.424-0.696,1.43,0.084,1.586
			c29.752,5.007,46.59,14.707,54.544,30.825c-0.001,0-0.003,0-0.004,0c6.799,0.448,13.217,2.302,18.971,5.269
			c10.947-15.86,17.963-34.618,19.645-54.865L166.691,63.158z"/>
	</g>
</g>
<path fill="#258881" d="M142.853,150.494c-0.78-0.156-0.847-1.162-0.084-1.586c13.917-7.541,28.127-23.723,31.852-43.562
	c0.646-3.121,1.074-6.333,1.082-9.619c0-0.057,0.008-0.092,0.008-0.149c0-32.153-21.651-54.062-48.334-54.062h-0.017
	c-0.075,0-0.151,0.025-0.226,0.025v194.292c6.393-0.257,12.654-1.035,18.737-2.305c-0.105-1.297-0.173-2.604-0.173-3.926
	c0-26.685,21.75-48.395,48.486-48.395c1.081,0,2.151,0.042,3.214,0.112C189.443,165.201,172.604,155.501,142.853,150.494z"/>
<g>
	<path fill="#FFFFFF" d="M194.182,269.428c-18.415,0-33.943-12.517-38.521-29.473c-0.741-2.742-1.197-5.6-1.33-8.541
		c-0.027-0.601-0.046-1.204-0.046-1.812c0-21.955,17.893-39.821,39.896-39.821c6.062,0,11.81,1.362,16.96,3.786
		c2.631,1.239,5.103,2.758,7.382,4.515c9.455,7.289,15.562,18.704,15.562,31.521C234.086,251.562,216.186,269.428,194.182,269.428z"
		/>
	<path fill="#2F3185" d="M223.622,191.182C237.102,171.545,245,147.805,245,122.253C245,54.842,190.055,0,122.519,0
		C54.962,0,0,54.842,0,122.253c0,67.416,54.962,122.252,122.519,122.252c8.492,0,16.784-0.868,24.793-2.519
		c5.496,20.705,24.423,36.013,46.87,36.013c26.74,0,48.494-21.711,48.494-48.398C242.676,213.959,235.195,200.034,223.622,191.182z
		 M122.519,235.934c-62.821,0-113.929-50.996-113.929-113.68c0-62.684,51.108-113.68,113.929-113.68
		c62.8,0,113.891,50.997,113.891,113.68c0,23.864-7.411,46.028-20.047,64.334c-6.652-3.43-14.19-5.381-22.181-5.381
		c-26.735,0-48.486,21.71-48.486,48.395c0,1.322,0.068,2.629,0.173,3.926C138.33,235.102,130.521,235.934,122.519,235.934z
		 M194.182,269.428c-18.415,0-33.943-12.517-38.521-29.473c-0.741-2.742-1.197-5.6-1.33-8.541c-0.027-0.601-0.046-1.204-0.046-1.812
		c0-21.955,17.893-39.821,39.896-39.821c6.062,0,11.81,1.362,16.96,3.786c2.631,1.239,5.103,2.758,7.382,4.515
		c9.455,7.289,15.562,18.704,15.562,31.521C234.086,251.562,216.186,269.428,194.182,269.428z"/>
	<g>
		<path fill="#00A7A5" d="M194.182,198.354c-17.297,0-31.306,13.993-31.306,31.248c0,17.264,14.009,31.253,31.306,31.253
			c17.289,0,31.314-13.989,31.314-31.253C225.497,212.347,211.471,198.354,194.182,198.354z M211.983,234.332h-12.885v13.303h-9.185
			v-13.303h-12.885v-8.87h12.885v-13.3h9.185v13.3h12.885V234.332z"/>
	</g>
</g>
</svg>
